<?xml version="1.0"?>
<svg xmlns="http://www.w3.org/2000/svg" version="1.2" baseProfile="tiny" width="800" height="1143" viewBox="0 0 800 1143" stroke-linecap="round" stroke-linejoin="round">
<g id="MM">
<path d="M 279.26 318.52 276.82 314.29 273.55 302.43 276 287.19 274.37 282.54 282.12 267.72 290.27 256.71 292.72 250.78 297.2 240.62 306.98 237.66 319.62 229.19 325.33 221.99 337.96 209.29 351.82 191.94 359.97 183.47 356.31 172.04 368.13 165.27 369.35 142.83 361.2 120.81 342.85 87.37 313.1 71.7 292.31 54.77 280.48 31.06 320.02 1 366.5 20.48 388.92 21.32 401.55 1.42 444.76 7.35 441.5 52.65 444.76 89.91 434.98 138.59 406.04 197.86 393.81 242.31 378.32 257.13 370.17 258.83 353.45 259.68 338.78 263.91 320.43 267.29 314.73 273.22 310.24 278.73 307.8 286.77 306.57 294.39 298.83 303.28 288.64 307.09 287.01 313.44 285.78 321.91 285.78 331.22 283.34 342.23 278.85 342.65 272.33 340.11 279.26 318.52 Z" fill-opacity="0.301960784313725" fill="#3949ab" stroke-opacity="1" stroke="#3949ab" stroke-width="1.2"/>
</g>
<g id="N4">
<path d="M 378.32 257.13 393.81 242.31 406.04 197.86 426.83 155.1 437.83 148.75 448.84 147.06 458.22 150.02 474.93 180.08 486.75 188.13 504.28 195.75 498.98 213.11 509.17 224.96 516.51 252.05 513.65 291.85 573.17 368.05 558.5 393.03 378.32 257.13 Z" fill-opacity="0.301960784313725" fill="#a52714" stroke-opacity="1" stroke="#a52714" stroke-width="1.2"/>
</g>
<g id="GUAYLL">
<path d="M 630.24 227.08 620.05 224.11 610.26 224.96 600.07 203.37 631.46 187.28 657.55 196.17 679.56 209.72 692.61 231.73 695.05 244.43 674.67 247.82 674.26 260.94 635.95 283.81 601.3 260.1 605.78 233.43 630.24 227.08 Z" fill-opacity="0.301960784313725" fill="#000000" stroke-opacity="1" stroke="#000000" stroke-width="1.2"/>
</g>
<g id="N3">
<path d="M 283.34 342.23 285.78 331.22 285.78 321.91 287.01 313.44 288.64 307.09 298.83 303.28 306.57 294.39 307.8 286.77 310.24 278.73 314.73 273.22 320.43 267.29 338.78 263.91 353.45 259.68 370.17 258.83 378.32 257.13 474.93 329.95 475.34 335.45 493.68 369.75 494.9 394.73 490.42 405.31 508.76 414.62 503.87 427.75 511.62 432.83 513.25 442.57 497.76 450.61 491.64 460.35 469.63 447.22 436.61 476.86 416.23 479.82 395.85 467.12 389.73 395.57 365.68 371.87 283.34 342.23 Z" fill-opacity="0.301960784313725" fill="#e65100" stroke-opacity="1" stroke="#e65100" stroke-width="1.2"/>
</g>
<g id="N1">
<path d="M 249.1 517.08 239.31 498.87 222.6 459.08 207.52 458.23 198.96 442.99 215.67 427.33 193.66 423.09 177.76 411.24 181.84 393.03 184.69 384.99 187.95 375.68 183.06 366.36 187.95 361.28 171.24 353.66 159.42 348.16 146.37 326.14 161.86 291 177.76 278.3 197.74 274.07 227.08 273.64 246.65 276.61 262.96 290.58 275.19 307.94 279.26 318.52 272.33 340.11 278.85 342.65 276.41 382.03 265.81 406.16 282.52 482.78 249.1 517.08 Z" fill-opacity="0.301960784313725" fill="#000000" stroke-opacity="1" stroke="#000000" stroke-width="1.2"/>
</g>
<g id="N2">
<path d="M 278.85 342.65 283.34 342.23 365.68 371.87 389.73 395.57 395.85 467.12 293.53 482.78 282.52 482.78 273.96 445.53 265.81 406.16 276.41 382.03 278.85 342.65 Z" fill-opacity="0.301960784313725" fill="#000000" stroke-opacity="1" stroke="#000000" stroke-width="1.2"/>
</g>
<g id="SinZona">
<path d="M 180.24 486.97 71.22 666.21 1 470.34 180.24 486.97 Z" fill-opacity="0.301960784313725
" fill="#000000
" stroke-opacity="1" stroke="#000000
" stroke-width="1.2"/>
</g>
<g id="TAB">
<path d="M 581.73 583.12 588.66 566.19 542.6 485.33 549.93 451.88 607 387.53 605.78 340.54 651.03 341.38 670.59 338.84 686.09 416.32 720.33 467.12 799 506.92 764.76 543.75 774.95 564.92 724 636.04 739.89 666.52 713.4 696.16 679.15 712.67 653.48 712.67 629.42 681.34 613.53 664.41 611.9 659.75 609.04 654.25 606.6 647.05 598.44 625.03 581.73 583.12 Z" fill-opacity="0.301960784313725" fill="#ff5252" stroke-opacity="1" stroke="#ff5252" stroke-width="1.2"/>
</g>
<g id="TUM">
<path d="M 472.08 612.33 485.93 594.98 503.46 581.85 515.28 580.16 507.13 576.77 505.91 550.95 518.14 550.52 523.03 544.6 509.58 533.59 505.09 517.93 548.3 496.33 588.66 566.19 581.73 583.12 613.53 664.41 605.78 680.07 589.88 676.26 587.44 687.69 598.04 698.7 582.95 712.25 569.09 715.63 560.13 711.82 556.86 700.39 550.34 688.12 541.37 705.9 525.88 705.9 505.09 706.32 489.6 697.43 487.57 683.88 478.19 686 475.34 672.03 465.15 673.72 472.08 612.33 Z" fill-opacity="0.301960784313725" fill="#000000" stroke-opacity="1" stroke="#000000" stroke-width="1.2"/>
</g>
<g id="NAYCUM">
<path d="M 503.46 581.85 485.93 594.98 472.08 612.33 461.48 708.86 390.55 708.86 355.9 652.13 351.01 652.13 340 654.67 371.39 597.51 407.26 474.32 416.23 479.82 436.61 476.86 452.92 480.24 454.14 493.79 480.64 503.95 467.59 536.98 492.05 560.68 503.46 581.85 Z" fill-opacity="0.301960784313725" fill="#01579b" stroke-opacity="1" stroke="#01579b" stroke-width="1.2"/>
</g>
<g id="CN2">
<path d="M 313.5 479.4 395.85 467.12 407.26 474.32 371.39 597.51 340 654.67 281.71 606.41 313.5 479.4 Z" fill-opacity="0.301960784313725" fill="#000000" stroke-opacity="1" stroke="#000000" stroke-width="1.2"/>
</g>
<g id="CN1">
<path d="M 249.1 517.08 282.52 482.78 293.53 482.78 313.5 479.4 281.71 606.41 216.89 600.06 204.67 586.51 199.37 574.65 201.81 565.77 204.67 558.14 198.14 547.14 207.93 545.44 214.86 538.25 239.31 539.52 249.1 517.08 Z" fill-opacity="0.301960784313725" fill="#000000" stroke-opacity="1" stroke="#000000" stroke-width="1.2"/>
</g>
<g id="CEN">
<path d="M 216.89 600.06 281.71 606.41 340 654.67 351.01 652.13 331.44 706.74 293.53 697.01 215.26 701.66 192.84 694.89 182.65 686.42 153.71 662.29 156.16 644.08 183.88 597.09 216.89 600.06 Z" fill-opacity="0.301960784313725" fill="#795548" stroke-opacity="1" stroke="#795548" stroke-width="1.2"/>
</g>
<g id="S1">
<path d="M 153.71 662.29 192.84 694.89 215.26 701.66 293.53 697.01 286.6 724.95 289.04 743.15 280.48 766.86 86.86 771.09 79.93 765.17 71.78 751.62 76.67 735.11 104.79 726.64 108.05 694.46 153.71 662.29 Z" fill-opacity="0.301960784313725" fill="#4e342e" stroke-opacity="1" stroke="#4e342e" stroke-width="1.2"/>
</g>
<g id="S2">
<path d="M 86.86 771.09 280.48 766.86 278.45 773.21 280.08 785.49 271.92 793.11 275.19 816.39 238.09 829.94 220.56 841.8 225.86 888.36 33.46 864.66 19.19 858.73 4.92 844.34 7.37 825.71 10.63 810.04 26.12 801.58 42.02 811.74 86.86 771.09 Z" fill-opacity="0.301960784313725" fill="#c2185b" stroke-opacity="1" stroke="#c2185b" stroke-width="1.2"/>
</g>
<g id="VALL1">
<path d="M 278.45 773.21 289.04 743.15 286.6 724.95 293.53 697.01 334.29 708.44 337.15 729.61 322.88 758.39 346.52 757.97 355.9 759.66 398.29 719.02 419.9 731.3 421.53 744.85 401.15 768.55 388.1 799.04 461.48 840.1 501.42 821.9 529.14 821.47 558.09 840.95 570.72 867.62 528.74 912.5 476.56 919.27 447.62 894.29 425.2 910.38 365.27 948.48 258.06 983.2 240.94 970.08 233.2 951.45 220.56 841.8 238.09 829.94 275.19 816.39 271.92 793.11 280.08 785.49 278.45 773.21 Z" fill-opacity="0.301960784313725" fill="#c2185b" stroke-opacity="1" stroke="#c2185b" stroke-width="1.2"/>
</g>
<g id="VALL2">
<path d="M 528.74 912.5 590.7 961.18 624.12 1095.39 615.97 1117.4 586.21 1115.71 572.35 1044.59 552.38 1037.81 538.93 1047.97 531.59 1058.13 519.36 1058.13 456.59 978.96 492.86 1063.21 488.38 1082.69 466.37 1096.23 443.54 1070.41 416.64 1071.68 402.78 1054.32 389.73 1100.47 344.89 1101.32 341.63 1082.69 328.59 1100.89 311.87 1092.85 299.65 1101.32 290.27 1098.35 289.04 1113.59 272.33 1122.91 262.96 1109.36 243.8 1141.53 202.22 1128.41 212 1076.76 227.9 1058.13 220.97 1048.82 199.77 1041.62 193.66 1030.19 204.26 1016.64 240.54 1030.19 257.25 1034.85 260.1 996.32 239.72 976 240.94 970.08 258.06 983.2 365.27 948.48 425.2 910.38 447.62 894.29 476.56 919.27 528.74 912.5 Z" fill-opacity="0.301960784313725" fill="#000000" stroke-opacity="1" stroke="#000000" stroke-width="1.2"/>
</g>
<g id="S3">
<path d="M 33.46 864.66 216.89 886.67 213.63 947.64 192.44 1004.79 185.1 1024.26 148 1046.28 72.18 1024.26 16.74 957.8 30.6 933.66 43.65 926.04 47.72 913.77 47.32 899.8 53.84 888.36 33.46 864.66 Z" fill-opacity="0.301960784313725" fill="#ffd600" stroke-opacity="1" stroke="#ffd600" stroke-width="1.2"/>
</g>
</svg>